<?xml version="1.0" encoding="utf-8"?>
<!-- Generator: Adobe Illustrator 16.0.0, SVG Export Plug-In . SVG Version: 6.00 Build 0)  -->
<!DOCTYPE svg PUBLIC "-//W3C//DTD SVG 1.1//EN" "http://www.w3.org/Graphics/SVG/1.1/DTD/svg11.dtd">
<svg version="1.1" id="圖層_1" xmlns="http://www.w3.org/2000/svg" xmlns:xlink="http://www.w3.org/1999/xlink" x="0px" y="0px"
	 width="841.889px" height="595.281px" viewBox="0 0 841.889 595.281" enable-background="new 0 0 841.889 595.281"
	 xml:space="preserve">
<path fill="#FFFFFF" d="M498.517,297.64l116.348-116.347c14.277-14.277,14.277-37.426,0-51.715l-25.857-25.857
	c-14.278-14.277-37.427-14.277-51.716,0L420.945,220.068L304.598,103.721c-14.277-14.277-37.426-14.277-51.715,0l-25.857,25.857
	c-14.277,14.277-14.277,37.426,0,51.715L343.372,297.64L227.026,413.988c-14.277,14.277-14.277,37.426,0,51.715l25.857,25.857
	c14.277,14.277,37.438,14.277,51.715,0l116.347-116.348L537.291,491.56c14.277,14.277,37.438,14.277,51.716,0l25.857-25.857
	c14.277-14.277,14.277-37.426,0-51.715L498.517,297.64z"/>
</svg>
